<?xml version="1.0" standalone="no"?><!DOCTYPE svg PUBLIC "-//W3C//DTD SVG 1.1//EN" "http://www.w3.org/Graphics/SVG/1.1/DTD/svg11.dtd"><svg t="1493955001781" class="icon" style="" viewBox="0 0 1024 1024" version="1.1" xmlns="http://www.w3.org/2000/svg" p-id="2641" xmlns:xlink="http://www.w3.org/1999/xlink" width="200" height="200"><defs><style type="text/css"></style></defs><path d="M973.871811 918.167626 847.352279 791.713586l0.022513 0.511653L711.706903 656.67196l-50.626028-6.517437 0.162706-0.8913c-0.76748 0.807389-1.523703 1.626034-2.299369 2.425236-1.385557 1.058099-2.721994 2.209318-3.988848 3.476171-1.25048 1.248434-2.388397 2.565429-3.435239 3.929496-56.69628 54.670134-133.837194 88.310302-218.854497 88.310302-174.081781 0-315.226404-141.02899-315.226404-314.994114 0-173.98866 141.145647-315.01765 315.226404-315.01765 174.105317 0 315.227428 141.02899 315.227428 315.01765 0 33.29429-5.192256 65.370847-14.774495 95.491865l0.610914 0.357134c-2.764973 5.38873-4.335748 11.488659-4.335748 17.952884l0.348947 3.645017c0 21.771863 17.663288 39.435151 39.436174 39.435151 14.806217 0 27.698852-8.157797 34.44858-20.211321l0.426719 0.248663c0.48607-1.320065 0.943488-2.65241 1.416256-3.979638 0.654916-1.528819 1.207501-3.110851 1.666966-4.732791 13.661138-39.997969 21.088294-82.884732 21.088294-127.510092 0-217.903845-176.772053-394.538775-394.839627-394.538775-218.043015 0-394.816091 176.633906-394.816091 394.538775 0 217.948871 176.774099 394.5838 394.816091 394.5838 94.67322 0 181.557032-33.29736 249.577219-88.808652l235.135298 234.989989c15.412015 15.412015 40.386826 15.412015 55.775304 0C989.283826 958.50738 989.283826 933.531546 973.871811 918.167626z" p-id="2642" fill="#ffffff"></path></svg>